# xmcd
#
# Track frame offsets:
#	150
#	22643
#	24464
#	41392
#	63470
#	78031
#	102566
#	107360
#	127016
#	142328
#	157462
#	161787
#	178338
#	205075
#	208774
#	227634
#	248475
#	268285
#	288587
#	305798
#	321758
#
# Disc length: 4385 seconds
#
# Revision: 0
# Processed by: cddbd v1.5.2PL0 Copyright (c) Steve Scherf et al.
# Submitted via: dBpowerAMP V4.0
#
DISCID=36111f15
DTITLE=Various Artist - Piano Latino
DYEAR=2007
DGENRE=Chamber Music
TTITLE0=Adlan Cruz - Track01
TTITLE1=Adlan Cruz - Track02
TTITLE2=Adlan Cruz - Track03
TTITLE3=Adlan Cruz - Track04
TTITLE4=Adlan Cruz - Track05
TTITLE5=Adlan Cruz - Track06
TTITLE6=Adlan Cruz - Track07
TTITLE7=Adlan Cruz - Track08
TTITLE8=Adlan Cruz - Track09
TTITLE9=Adlan Cruz - Track10
TTITLE10=Adlan Cruz - Track11
TTITLE11=Adlan Cruz - Track12
TTITLE12=Adlan Cruz - Track13
TTITLE13=Adlan Cruz - Track14
TTITLE14=Adlan Cruz - Track15
TTITLE15=Adlan Cruz - Track16
TTITLE16=Adlan Cruz - Track17
TTITLE17=Adlan Cruz - Track18
TTITLE18=Adlan Cruz - Track19
TTITLE19=Adlan Cruz - Track20
TTITLE20=Adlan Cruz - Track21
EXTD=
EXTT0=
EXTT1=
EXTT2=
EXTT3=
EXTT4=
EXTT5=
EXTT6=
EXTT7=
EXTT8=
EXTT9=
EXTT10=
EXTT11=
EXTT12=
EXTT13=
EXTT14=
EXTT15=
EXTT16=
EXTT17=
EXTT18=
EXTT19=
EXTT20=
PLAYORDER=
